<mxfile host="app.diagrams.net" agent="Mozilla/5.0 (Windows NT 10.0; Win64; x64) AppleWebKit/537.36 (KHTML, like Gecko) Chrome/135.0.0.0 Safari/537.36 Edg/135.0.0.0" version="26.2.9">
  <diagram name="Page-1" id="IgkqFd1caS56WoPu7x-Q">
    <mxGraphModel dx="-46" dy="2681" grid="1" gridSize="10" guides="1" tooltips="1" connect="1" arrows="1" fold="1" page="1" pageScale="1" pageWidth="850" pageHeight="1100" math="0" shadow="0">
      <root>
        <mxCell id="0" />
        <mxCell id="1" parent="0" />
        <mxCell id="BhVwhJEXMKmfEcStHq1X-3" value="gc_hal_kernel_hardware.c" style="swimlane;fontStyle=1;align=center;verticalAlign=top;childLayout=stackLayout;horizontal=1;startSize=26;horizontalStack=0;resizeParent=1;resizeParentMax=0;resizeLast=0;collapsible=1;marginBottom=0;whiteSpace=wrap;html=1;" vertex="1" parent="1">
          <mxGeometry x="950" y="-1990" width="340" height="236" as="geometry" />
        </mxCell>
        <mxCell id="BhVwhJEXMKmfEcStHq1X-4" value="&lt;b&gt;gckHARDWARE_Construct(Os, Kernel, *Hardware)&lt;/b&gt;" style="text;strokeColor=#666666;fillColor=#f5f5f5;align=left;verticalAlign=top;spacingLeft=4;spacingRight=4;overflow=hidden;rotatable=0;points=[[0,0.5],[1,0.5]];portConstraint=eastwest;whiteSpace=wrap;html=1;fontColor=#333333;" vertex="1" parent="BhVwhJEXMKmfEcStHq1X-3">
          <mxGeometry y="26" width="340" height="26" as="geometry" />
        </mxCell>
        <mxCell id="BhVwhJEXMKmfEcStHq1X-5" value="" style="line;strokeWidth=1;fillColor=none;align=left;verticalAlign=middle;spacingTop=-1;spacingLeft=3;spacingRight=3;rotatable=0;labelPosition=right;points=[];portConstraint=eastwest;strokeColor=inherit;" vertex="1" parent="BhVwhJEXMKmfEcStHq1X-3">
          <mxGeometry y="52" width="340" height="8" as="geometry" />
        </mxCell>
        <mxCell id="BhVwhJEXMKmfEcStHq1X-6" value="&lt;div&gt;while(1)&lt;/div&gt;&lt;div&gt;{&lt;/div&gt;&lt;div&gt;&amp;nbsp; &amp;nbsp; cmd = &lt;b&gt;os_queue_head&lt;/b&gt;(q-&amp;gt;commandQueue)&lt;br&gt;&lt;br&gt;&amp;nbsp; &amp;nbsp; &lt;b&gt;commitCmdBuffer&lt;/b&gt;(cmd, &amp;amp;commitInfo)&lt;/div&gt;&lt;div&gt;&amp;nbsp; &amp;nbsp; &lt;b&gt;releaseCommandBuffer&lt;/b&gt;(cmd)&lt;/div&gt;&lt;div&gt;&lt;br&gt;&lt;/div&gt;&lt;div&gt;&amp;nbsp; &amp;nbsp; &lt;b&gt;os_queue_pop_head&lt;/b&gt;(q-&amp;gt;commandQueue)&lt;/div&gt;&lt;div&gt;}&lt;/div&gt;" style="text;strokeColor=none;fillColor=default;align=left;verticalAlign=top;spacingLeft=4;spacingRight=4;overflow=hidden;rotatable=0;points=[[0,0.5],[1,0.5]];portConstraint=eastwest;whiteSpace=wrap;html=1;" vertex="1" parent="BhVwhJEXMKmfEcStHq1X-3">
          <mxGeometry y="60" width="340" height="150" as="geometry" />
        </mxCell>
        <mxCell id="BhVwhJEXMKmfEcStHq1X-7" value="&amp;gt;&amp;gt;&amp;gt;&amp;gt;&amp;gt;&amp;gt;&amp;gt;" style="text;strokeColor=none;fillColor=default;align=left;verticalAlign=top;spacingLeft=4;spacingRight=4;overflow=hidden;rotatable=0;points=[[0,0.5],[1,0.5]];portConstraint=eastwest;whiteSpace=wrap;html=1;" vertex="1" parent="BhVwhJEXMKmfEcStHq1X-3">
          <mxGeometry y="210" width="340" height="26" as="geometry" />
        </mxCell>
      </root>
    </mxGraphModel>
  </diagram>
</mxfile>
